<?xml version="1.0" encoding="UTF-8" standalone="no"?>
<svg xmlns:rdf="http://www.w3.org/1999/02/22-rdf-syntax-ns#" xmlns="http://www.w3.org/2000/svg" enable-background="new 5.5 -3.5 64 64" xml:space="preserve" height="32px" viewBox="5.5 -3.5 64 64" width="32px" version="1.0" y="0px" x="0px" xmlns:cc="http://creativecommons.org/ns#" xmlns:dc="http://purl.org/dc/elements/1.1/"><path fill="#FFFFFF" d="m37.44-3.5c8.988 0 16.57 3.085 22.74 9.257 6.208 6.21 9.315 13.79 9.315 22.74 0 8.991-3.049 16.48-9.145 22.46-6.48 6.36-14.12 9.54-22.92 9.54-8.65 0-16.15-3.14-22.51-9.43-6.286-6.29-9.43-13.81-9.43-22.57s3.144-16.34 9.43-22.74c6.17-6.175 13.67-9.26 22.51-9.26zm0.114 5.772c-7.276 0-13.43 2.553-18.46 7.657-5.22 5.334-7.829 11.52-7.829 18.57 0 7.086 2.59 13.22 7.77 18.4 5.181 5.182 11.35 7.771 18.51 7.771 7.123 0 13.33-2.607 18.63-7.828 5.029-4.838 7.543-10.95 7.543-18.34 0-7.276-2.553-13.46-7.656-18.57-5.08-5.108-11.25-7.66-18.49-7.66z"/><path fill="#FFFFFF" d="m42.15 34.54h-9.277v-0.9277q0-2.368 0.5371-3.833 0.5371-1.489 1.587-2.71 1.074-1.221 4.785-4.297 1.978-1.611 1.978-2.954t-0.8057-2.075q-0.7812-0.7568-2.393-0.7568-1.733 0-2.881 1.147-1.123 1.147-1.44 4.004l-9.473-1.172q0.4883-5.225 3.784-8.398 3.32-3.198 10.16-3.198 5.322 0 8.594 2.222 4.443 3.003 4.443 8.008 0 2.075-1.147 4.004t-4.688 4.712q-2.466 1.953-3.125 3.149-0.6348 1.172-0.6348 3.076zm-9.595 2.466h9.937v8.765h-9.937v-8.765z"/></svg>
