<svg xmlns="http://www.w3.org/2000/svg" xmlns:xlink="http://www.w3.org/1999/xlink" viewBox="0 0 248.5 215.3"><defs><style>.cls-1{fill:none;stroke:#325c18;stroke-miterlimit:10;stroke-width:2px;}.cls-2{fill:url(#linear-gradient);}.cls-3{fill:url(#linear-gradient-2);}.cls-4{fill:url(#linear-gradient-3);}.cls-5{fill:url(#linear-gradient-4);}.cls-6{fill:url(#linear-gradient-5);}.cls-7{fill:url(#linear-gradient-6);}.cls-8{fill:url(#linear-gradient-7);}.cls-9{fill:url(#linear-gradient-8);}.cls-10{fill:url(#linear-gradient-9);}.cls-11{fill:url(#linear-gradient-10);}.cls-12{fill:url(#linear-gradient-11);}.cls-13{fill:url(#linear-gradient-12);}.cls-14{fill:url(#linear-gradient-13);}.cls-15{fill:url(#linear-gradient-14);}.cls-16{fill:url(#linear-gradient-15);}.cls-17{fill:url(#linear-gradient-16);}.cls-18{fill:url(#linear-gradient-17);}.cls-19{fill:url(#linear-gradient-18);}.cls-20{fill:url(#linear-gradient-19);}.cls-21{fill:url(#linear-gradient-20);}.cls-22{fill:url(#linear-gradient-21);}.cls-23{fill:url(#linear-gradient-22);}.cls-24{fill:url(#linear-gradient-23);}.cls-25{fill:url(#linear-gradient-24);}.cls-26{fill:url(#linear-gradient-25);}.cls-27{fill:url(#linear-gradient-26);}.cls-28{fill:url(#linear-gradient-27);}.cls-29{fill:url(#linear-gradient-28);}.cls-30{fill:url(#linear-gradient-29);}.cls-31{fill:url(#linear-gradient-30);}.cls-32{fill:url(#linear-gradient-31);}.cls-33{fill:url(#linear-gradient-32);}.cls-34{fill:url(#linear-gradient-33);}.cls-35{fill:url(#linear-gradient-34);}.cls-36{fill:url(#linear-gradient-35);}.cls-37{fill:url(#linear-gradient-36);}</style><linearGradient id="linear-gradient" x1="36.14" y1="15.02" x2="44.14" y2="18.77" gradientTransform="matrix(-1, 0, 0, 1, 248.5, 0)" gradientUnits="userSpaceOnUse"><stop offset="0" stop-color="#4d8741"/><stop offset="0" stop-color="#4c8640"/><stop offset="0.09" stop-color="#397c2d"/><stop offset="0.18" stop-color="#2e7522"/><stop offset="0.28" stop-color="#2a731e"/><stop offset="0.67" stop-color="#2b5219"/><stop offset="0.99" stop-color="#2e702d"/></linearGradient><linearGradient id="linear-gradient-2" x1="38.65" y1="28.42" x2="46.45" y2="32.07" xlink:href="#linear-gradient"/><linearGradient id="linear-gradient-3" x1="34.9" y1="47.77" x2="42.64" y2="51.4" gradientTransform="matrix(-1, 0.1, 0.11, 1.08, 243.93, -5.43)" gradientUnits="userSpaceOnUse"><stop offset="0" stop-color="#4d8741"/><stop offset="0" stop-color="#4c8640"/><stop offset="0.09" stop-color="#397c2d"/><stop offset="0.18" stop-color="#2e7522"/><stop offset="0.28" stop-color="#2a731e"/><stop offset="0.67" stop-color="#2b5219"/><stop offset="0.89" stop-color="#2e702d"/><stop offset="1" stop-color="#2e702d"/></linearGradient><linearGradient id="linear-gradient-4" x1="20.51" y1="35.63" x2="30.99" y2="38.51" xlink:href="#linear-gradient"/><linearGradient id="linear-gradient-5" x1="25.22" y1="92.94" x2="34.02" y2="97.07" gradientTransform="matrix(-1, 0, 0, 1, 248.5, 0)" xlink:href="#linear-gradient-3"/><linearGradient id="linear-gradient-6" x1="31.56" y1="69.31" x2="39.45" y2="73.01" gradientTransform="matrix(-0.99, 0.15, 0.15, 0.99, 238.32, -4.49)" xlink:href="#linear-gradient-3"/><linearGradient id="linear-gradient-7" x1="12.05" y1="60.94" x2="28.65" y2="68.72" gradientTransform="matrix(-0.9, 0.16, 0.17, 0.91, 236.28, 2.38)" xlink:href="#linear-gradient-3"/><linearGradient id="linear-gradient-8" x1="9.49" y1="81.76" x2="24.87" y2="88.97" gradientTransform="matrix(-1, 0, 0, 1, 248.5, 0)" xlink:href="#linear-gradient-3"/><linearGradient id="linear-gradient-9" x1="14.37" y1="120.57" x2="31.54" y2="128.61" gradientTransform="matrix(-1, 0, 0, 1, 248.5, 0)" xlink:href="#linear-gradient-3"/><linearGradient id="linear-gradient-10" x1="29.96" y1="117.41" x2="39.29" y2="121.78" gradientTransform="matrix(-1, 0, 0, 1, 248.5, 0)" xlink:href="#linear-gradient-3"/><linearGradient id="linear-gradient-11" x1="22.07" y1="143.24" x2="40.56" y2="151.91" gradientTransform="matrix(-1, 0, 0, 1, 248.5, 0)" xlink:href="#linear-gradient-3"/><linearGradient id="linear-gradient-12" x1="32.97" y1="162.92" x2="55.78" y2="173.61" gradientTransform="matrix(-1, 0, 0, 1, 248.5, 0)" xlink:href="#linear-gradient-3"/><linearGradient id="linear-gradient-13" x1="38.37" y1="139.16" x2="49.2" y2="144.23" gradientTransform="matrix(-1, 0, 0, 1, 248.5, 0)" xlink:href="#linear-gradient-3"/><linearGradient id="linear-gradient-14" x1="54.47" y1="153.52" x2="65.45" y2="158.67" gradientTransform="matrix(-1, -0.03, -0.03, 1, 252.85, 1.88)" xlink:href="#linear-gradient-3"/><linearGradient id="linear-gradient-15" x1="69.69" y1="169.52" x2="90.02" y2="172.86" gradientTransform="matrix(-0.91, 0.03, -0.03, 0.93, 246.65, 11.39)" gradientUnits="userSpaceOnUse"><stop offset="0" stop-color="#4d8741"/><stop offset="0" stop-color="#4c8640"/><stop offset="0.09" stop-color="#397c2d"/><stop offset="0.18" stop-color="#2e7522"/><stop offset="0.28" stop-color="#2a731e"/><stop offset="0.58" stop-color="#2b5219"/><stop offset="0.67" stop-color="#2b5219"/><stop offset="0.89" stop-color="#2e702d"/><stop offset="1" stop-color="#2e702d"/></linearGradient><linearGradient id="linear-gradient-16" x1="51.57" y1="178.79" x2="78.7" y2="191.51" gradientTransform="matrix(-1, 0.07, 0.07, 1, 236.13, -3.46)" xlink:href="#linear-gradient-3"/><linearGradient id="linear-gradient-17" x1="68.62" y1="190.39" x2="86.25" y2="198.65" gradientTransform="matrix(-1, 0, 0, 1, 248.5, 0)" xlink:href="#linear-gradient-3"/><linearGradient id="linear-gradient-18" x1="9.85" y1="100.35" x2="25.33" y2="107.6" gradientTransform="matrix(-1, 0.1, 0.1, 1, 239.26, -0.79)" xlink:href="#linear-gradient-3"/><linearGradient id="linear-gradient-19" x1="36.14" y1="15.02" x2="44.14" y2="18.77" gradientTransform="matrix(1, 0, 0, 1, 0, 0)" xlink:href="#linear-gradient"/><linearGradient id="linear-gradient-20" x1="38.65" y1="28.42" x2="46.45" y2="32.07" gradientTransform="matrix(1, 0, 0, 1, 0, 0)" xlink:href="#linear-gradient"/><linearGradient id="linear-gradient-21" x1="34.9" y1="47.77" x2="42.64" y2="51.4" gradientTransform="matrix(1, 0.1, -0.11, 1.08, 4.56, -5.43)" xlink:href="#linear-gradient-3"/><linearGradient id="linear-gradient-22" x1="20.51" y1="35.63" x2="30.99" y2="38.51" gradientTransform="matrix(1, 0, 0, 1, 0, 0)" xlink:href="#linear-gradient"/><linearGradient id="linear-gradient-23" x1="25.22" y1="92.94" x2="34.02" y2="97.07" gradientTransform="matrix(1, 0, 0, 1, 0, 0)" xlink:href="#linear-gradient-3"/><linearGradient id="linear-gradient-24" x1="31.56" y1="69.31" x2="39.45" y2="73.01" gradientTransform="translate(10.18 -4.49) rotate(8.92)" xlink:href="#linear-gradient-3"/><linearGradient id="linear-gradient-25" x1="12.05" y1="60.94" x2="28.65" y2="68.72" gradientTransform="matrix(0.9, 0.16, -0.17, 0.91, 12.21, 2.38)" xlink:href="#linear-gradient-3"/><linearGradient id="linear-gradient-26" x1="9.49" y1="81.76" x2="24.87" y2="88.97" gradientTransform="matrix(1, 0, 0, 1, 0, 0)" xlink:href="#linear-gradient-3"/><linearGradient id="linear-gradient-27" x1="14.37" y1="120.57" x2="31.54" y2="128.61" gradientTransform="matrix(1, 0, 0, 1, 0, 0)" xlink:href="#linear-gradient-3"/><linearGradient id="linear-gradient-28" x1="29.96" y1="117.41" x2="39.29" y2="121.78" gradientTransform="matrix(1, 0, 0, 1, 0, 0)" xlink:href="#linear-gradient-3"/><linearGradient id="linear-gradient-29" x1="22.07" y1="143.24" x2="40.56" y2="151.91" gradientTransform="matrix(1, 0, 0, 1, 0, 0)" xlink:href="#linear-gradient-3"/><linearGradient id="linear-gradient-30" x1="32.97" y1="162.92" x2="55.78" y2="173.61" gradientTransform="matrix(1, 0, 0, 1, 0, 0)" xlink:href="#linear-gradient-3"/><linearGradient id="linear-gradient-31" x1="38.37" y1="139.16" x2="49.2" y2="144.23" gradientTransform="matrix(1, 0, 0, 1, 0, 0)" xlink:href="#linear-gradient-3"/><linearGradient id="linear-gradient-32" x1="54.47" y1="153.52" x2="65.45" y2="158.67" gradientTransform="translate(-4.35 1.88) rotate(-1.66)" xlink:href="#linear-gradient-3"/><linearGradient id="linear-gradient-33" x1="69.69" y1="169.52" x2="90.02" y2="172.86" gradientTransform="matrix(0.91, 0.03, 0.03, 0.93, 1.85, 11.39)" xlink:href="#linear-gradient-15"/><linearGradient id="linear-gradient-34" x1="51.57" y1="178.79" x2="78.7" y2="191.51" gradientTransform="translate(12.36 -3.46) rotate(3.98)" xlink:href="#linear-gradient-3"/><linearGradient id="linear-gradient-35" x1="68.62" y1="190.39" x2="86.25" y2="198.65" gradientTransform="matrix(1, 0, 0, 1, 0, 0)" xlink:href="#linear-gradient-3"/><linearGradient id="linear-gradient-36" x1="9.85" y1="100.35" x2="25.33" y2="107.6" gradientTransform="translate(9.23 -0.79) rotate(5.54)" xlink:href="#linear-gradient-3"/></defs><title>wraith</title><g id="Layer_2" data-name="Layer 2"><g id="v3"><path class="cls-1" d="M218.32,28.48c10.94,37.24,17.24,78-1.41,111.58-13.21,23.76-44.22,46.28-68.13,51.46-16.65,4.7-22.13,4.93-28.52,8.75-5.55,3.32-8.75,5.06-21.94,14.2"/><path class="cls-2" d="M205.78,0c-1.12.38-6.37,11,0,19s13,11.13,13,11.13,3.63-9.62,0-17.12S205.78,0,205.78,0Z"/><path class="cls-3" d="M197.3,12s.52,14.55,7,20.79S222.11,45,222.11,45s-2.72-15.29-7.4-19.88S197.3,12,197.3,12Z"/><path class="cls-4" d="M204,33.46S202.48,48.85,208.24,54,226.61,64.2,226.61,64.2s-4-15.55-7.82-19.36S204,33.46,204,33.46Z"/><path class="cls-5" d="M224.48,15.06s-1.32,26.69-1,32.71a35.52,35.52,0,0,0,2.38,10s9.58-7.08,9.83-17.83S224.48,15.06,224.48,15.06Z"/><path class="cls-6" d="M215.67,78.31s-4.31,12.5,0,19,11.67,11.91,11.67,11.91l1.31-22.09Z"/><path class="cls-7" d="M208.15,51.5c-.86-.62-2.19,15,3.49,22.23s18.23,11.06,18.23,11.06l-2-12.71S223.12,64,219,60.81,208.15,51.5,208.15,51.5Z"/><path class="cls-8" d="M239.17,45c.45-.08-3.51,7.42-7.43,11.39s-4.65,10.87-4.65,10.87l1.42,8.89s15.56-8.1,17.09-17.54A13.15,13.15,0,0,0,239.17,45Z"/><path class="cls-9" d="M247.31,69.24s-3.1,0-9.77,4S229,80.37,229,80.37l-.39,15.7a45.86,45.86,0,0,0,15.43-11A15.52,15.52,0,0,0,247.31,69.24Z"/><path class="cls-10" d="M244.64,109.26s.76,10.3-4.5,15.8-18.89,8.67-18.89,8.67,6.29-16.17,11.71-20.67A16.89,16.89,0,0,1,244.64,109.26Z"/><path class="cls-11" d="M217,99.2s-8.77,9.58-7.77,17.92,9.69,19.08,9.69,19.08,6.85-14.5,5.58-22.5S217,99.2,217,99.2Z"/><path class="cls-12" d="M239,133.69s-1.54,10-8,14.25-20.73,4.5-20.73,4.5,7.25-12.17,14.38-15.33A43.45,43.45,0,0,1,239,133.69Z"/><path class="cls-13" d="M233,155.31s-4.92,12.25-15.58,15.75-24.16-1.75-24.16-1.75,10.36-12.27,20.52-14A60.27,60.27,0,0,1,233,155.31Z"/><path class="cls-14" d="M209.11,125.15s-6.75,6.75-6.5,14.5a60.4,60.4,0,0,0,3.25,16s12.5-10,12-19S209.11,125.15,209.11,125.15Z"/><path class="cls-15" d="M194.7,137.73s-9,9.24-8.78,18.13a39.25,39.25,0,0,0,3.67,15.49s10.82-6.19,12.12-16.53S194.7,137.73,194.7,137.73Z"/><path class="cls-16" d="M185.9,156.82s-10,.08-15.55,8.25-4.66,19.56-4.66,19.56a21,21,0,0,0,18.55-9.46C191.26,164.55,185.9,156.82,185.9,156.82Z"/><path class="cls-17" d="M221,174.84s-14.75,13.06-28.27,13.5-15.61-5.49-22.36-4.2,14.57-10.8,21.22-12.26S221,174.84,221,174.84Z"/><path class="cls-18" d="M195.22,188.47c.3.18-3.5,12.75-14.75,11.75s-20.5-9.44-21-11.75,11.14-1.16,18.07-3S192.72,187,195.22,188.47Z"/><path class="cls-19" d="M248.42,90.35a19.93,19.93,0,0,0-11.81,3.72c-5.54,4.08-3.64,9.79-7.9,15.44s7.93,0,14.39-4.34S248.42,90.35,248.42,90.35Z"/><path class="cls-1" d="M30.18,28.48c-10.94,37.24-17.24,78,1.41,111.58,13.21,23.76,44.22,46.28,68.13,51.46,16.65,4.7,22.13,4.93,28.52,8.75,5.55,3.32,8.75,5.06,21.94,14.2"/><path class="cls-20" d="M42.72,0c1.13.38,6.38,11,0,19s-13,11.13-13,11.13-3.62-9.62,0-17.12S42.72,0,42.72,0Z"/><path class="cls-21" d="M51.19,12s-.52,14.55-7,20.79S26.38,45,26.38,45s2.72-15.29,7.4-19.88S51.19,12,51.19,12Z"/><path class="cls-22" d="M44.5,33.46S46,48.85,40.26,54,21.88,64.2,21.88,64.2s4-15.55,7.82-19.36S44.5,33.46,44.5,33.46Z"/><path class="cls-23" d="M24,15.06s1.32,26.69,1,32.71a35.52,35.52,0,0,1-2.38,10S13,50.67,12.8,39.92,24,15.06,24,15.06Z"/><path class="cls-24" d="M32.82,78.31s4.31,12.5,0,19-11.67,11.91-11.67,11.91L19.84,87.14Z"/><path class="cls-25" d="M40.35,51.5c.86-.62,2.19,15-3.49,22.23S18.63,84.79,18.63,84.79l2-12.71S25.37,64,29.48,60.81,40.35,51.5,40.35,51.5Z"/><path class="cls-26" d="M9.32,45c-.45-.08,3.51,7.42,7.43,11.39S21.4,67.27,21.4,67.27L20,76.16S4.42,68.06,2.89,58.61A13.15,13.15,0,0,1,9.32,45Z"/><path class="cls-27" d="M1.18,69.24s3.1,0,9.77,4,8.49,7.14,8.49,7.14l.39,15.7a45.86,45.86,0,0,1-15.43-11A15.52,15.52,0,0,1,1.18,69.24Z"/><path class="cls-28" d="M3.85,109.26s-.76,10.3,4.5,15.8,18.89,8.67,18.89,8.67S21,117.56,15.53,113.06A16.89,16.89,0,0,0,3.85,109.26Z"/><path class="cls-29" d="M31.54,99.2s8.77,9.58,7.77,17.92-9.69,19.08-9.69,19.08S22.77,121.7,24,113.7,31.54,99.2,31.54,99.2Z"/><path class="cls-30" d="M9.51,133.69s1.54,10,8,14.25,20.73,4.5,20.73,4.5S31,140.28,23.88,137.11A43.45,43.45,0,0,0,9.51,133.69Z"/><path class="cls-31" d="M15.53,155.31s4.92,12.25,15.58,15.75,24.16-1.75,24.16-1.75-10.36-12.27-20.52-14A60.27,60.27,0,0,0,15.53,155.31Z"/><path class="cls-32" d="M39.39,125.15s6.75,6.75,6.5,14.5a60.4,60.4,0,0,1-3.25,16s-12.5-10-12-19S39.39,125.15,39.39,125.15Z"/><path class="cls-33" d="M53.8,137.73s9,9.24,8.78,18.13a39.25,39.25,0,0,1-3.67,15.49s-10.82-6.19-12.12-16.53S53.8,137.73,53.8,137.73Z"/><path class="cls-34" d="M62.59,156.82s10,.08,15.55,8.25,4.66,19.56,4.66,19.56a21,21,0,0,1-18.55-9.46C57.24,164.55,62.59,156.82,62.59,156.82Z"/><path class="cls-35" d="M27.53,174.84s14.75,13.06,28.27,13.5,15.61-5.49,22.36-4.2-14.57-10.8-21.22-12.26S27.53,174.84,27.53,174.84Z"/><path class="cls-36" d="M53.28,188.47c-.3.18,3.5,12.75,14.75,11.75s20.5-9.44,21-11.75-11.14-1.16-18.07-3S55.78,187,53.28,188.47Z"/><path class="cls-37" d="M.08,90.35a19.93,19.93,0,0,1,11.81,3.72c5.54,4.08,3.64,9.79,7.9,15.44s-7.93,0-14.39-4.34S.08,90.35.08,90.35Z"/></g></g></svg>