<svg xmlns="http://www.w3.org/2000/svg" viewBox="0 0 721 205"><defs><style>.a{fill:#fff;}</style></defs><title>capeia_logo_centered_1c</title><path class="a" d="M129,64.9h.48a9.6,9.6,0,0,1,1.89.27h.13a9.57,9.57,0,0,1,5.89,4.49,9.61,9.61,0,0,1-3.52,13.12,9.63,9.63,0,0,1-2.38,1h-.13a9.59,9.59,0,0,1-1.64.25h-1.06a9.58,9.58,0,0,1-6.51-2.94h0l0,0,0,0,0,0a9.61,9.61,0,0,1-1.41-1.94h0l0,0h0l0-.06,0,0v0l0,0v0l0-.06h0l0-.07h0l0-.06h0a9.54,9.54,0,0,1-.94-3.59h0v-.16h0v-.16h0V74.5h0v-.25h0V74.1h0v-.15h0v-.07h0a9.54,9.54,0,0,1,.74-3.09h0l0-.06h0l.06-.13v0l0,0v0l0,0,0,0v0l0,0v0a9.61,9.61,0,0,1,1.71-2.44h0l.05-.06,0,0h0a9.57,9.57,0,0,1,6.4-2.82H129m.07-20.15A62.13,62.13,0,0,0,112.65,47a151.58,151.58,0,0,0-15.43,5.33c-11.56,4.46-23.51,9.06-40.91,9.06A78.27,78.27,0,0,1,30.59,57C21.46,65.77,16,72.86,16,74.5S21.46,83.23,30.59,92a78.3,78.3,0,0,1,25.72-4.41c17.39,0,29.35,4.61,40.91,9.06A151.58,151.58,0,0,0,112.65,102a62.14,62.14,0,0,0,16.47,2.24,33.9,33.9,0,0,0,15.31-3.49A36.66,36.66,0,0,0,157,90.27c5.33-6.85,7.59-14.06,7.59-15.77s-2.26-8.92-7.59-15.77a36.66,36.66,0,0,0-12.56-10.49,33.9,33.9,0,0,0-15.31-3.49"/><path class="a" d="M118,13.5a81.85,81.85,0,0,0-22.21,3.26C71.36,23.65,48.72,40.21,33.85,53.9a70.48,70.48,0,0,0,22.46,3.48c16.65,0,28.25-4.47,39.47-8.8a154.42,154.42,0,0,1,15.84-5.46,66,66,0,0,1,17.51-2.38,37.86,37.86,0,0,1,17.09,3.91,40.62,40.62,0,0,1,13.93,11.61,44.29,44.29,0,0,1,8.16,16.23h24.6a57.77,57.77,0,0,0-10-29A63.71,63.71,0,0,0,159.09,22.6a83.15,83.15,0,0,0-30-8.54A107.41,107.41,0,0,0,118,13.5"/><path class="a" d="M192.91,76.5H168.31a44.28,44.28,0,0,1-8.16,16.23,40.62,40.62,0,0,1-13.93,11.61,37.85,37.85,0,0,1-17.09,3.91,66,66,0,0,1-17.51-2.38,154.19,154.19,0,0,1-15.84-5.46c-11.22-4.32-22.82-8.8-39.47-8.8A70.48,70.48,0,0,0,33.85,95.1c14.87,13.69,37.51,30.25,61.94,37.14A81.85,81.85,0,0,0,118,135.5a106.9,106.9,0,0,0,11.12-.56,83.11,83.11,0,0,0,30-8.54,63.7,63.7,0,0,0,23.83-20.85,57.77,57.77,0,0,0,10-29"/><path class="a" d="M244.2,31.61c12.09-9.44,27.49-14.08,44.72-14.08a127.83,127.83,0,0,1,29.32,4,12.49,12.49,0,0,0,4.64.66c.17,3.81,1,14.24,2.32,24.35-.83,1.16-3.31,1.33-4.47.33-2.48-11.26-9.94-24.18-34-24.18-25.34,0-46.87,16.07-46.87,50.35,0,34.78,22,54,49.19,54,21.37,0,30.81-13.91,34.62-23.68,1.16-.83,3.64-.5,4.31.66-1.16,8.61-5.46,19.54-7.95,22.69a33.31,33.31,0,0,0-5.8,1.66c-3.64,1.32-15.57,3.81-26.17,3.81-14.91,0-29.15-3-41.24-11.1-13.25-9.11-23.52-24.18-23.52-45.55C223.33,57.12,231.61,41.38,244.2,31.61Z"/><path class="a" d="M360.74,101.56c-4.11,0-4.65.18-6.08,4.29l-4.11,11.45c-2,5.72-1.43,6.44,2,7.16l4.83.89c1.43.89,1.25,4.11-.54,4.47-4.47-.36-9.12-.54-14.13-.54s-9.3.36-12.52.54c-1.61-.72-1.61-3.58-.36-4.47l4.11-.89c5.54-1.25,7.51-3.22,11.09-11.81l17.17-41.14c3-7.33,4.29-11.63,4.65-15,3.22-1.25,6.62-4.65,7.51-6.8,1.43-.54,2.5-.18,2.86.89.72,1.79,3.58,11.09,7.69,22L401,115.33c2.15,5.9,3.76,8.23,10.19,9.48l2.86.54c1.61.89,1.25,4.11-.54,4.47-4.65-.36-8.76-.54-14.85-.54-6.44,0-11.63.18-16.1.54-1.79-.54-2-3.76-.36-4.47l3.58-.54c4.65-.72,4.47-1.79,2.32-7.33l-4.29-11.63c-1.43-4.11-2-4.29-6.08-4.29Zm14.13-5.72c4.65,0,5.19-.36,3.22-5.54l-5.54-15.2a34.38,34.38,0,0,0-2.68-6.44h-.36c-.54.72-1.25,2.33-2.86,6.08l-6.44,15.92c-2,4.83-1.61,5.19,2.32,5.19Z"/><path class="a" d="M432.11,72.58c0-11.63-.18-14.31-4.29-15l-5.37-.89c-1.61-.54-1.43-3.94.18-4.47,10-.71,19.14-1.07,28.62-1.07,10,0,16.46,1.25,21.46,3A21.52,21.52,0,0,1,487.2,75.09c0,12.34-8.23,18.07-14.85,20.39-6.08,2.15-12.88,3-16.28,2.68a2.46,2.46,0,0,1-.18-3.22C467,92.62,472.54,86,472.54,74.55c0-11.81-7.33-18.24-19.5-18.24-7.33,0-7.33,1.07-7.33,6.08V110.5c0,12.34.72,13.24,8.41,14.31l4.11.54c1.25.89,1.07,3.93-.36,4.47-7.51-.36-13.42-.54-19-.54-5.72,0-11.27.18-17.53.54-1.43-.54-1.61-3.58-.36-4.47l2.68-.54c7.69-1.61,8.41-2,8.41-14.31Z"/><path class="a" d="M508.67,70.44c0-12.34-.71-12.88-7.51-14.31l-2.5-.54c-1.25-.72-1.07-3.76.36-4.47q7.78.54,16.63.54H541c7.87,0,15-.18,16.63-.54l2,18.24c-.72,1.43-3.58,1.61-4.65.36-1.07-4.65-2.15-7-3.22-8.58-2.86-4.29-10.91-4.29-15.2-4.29H528.7c-6.26,0-6.44.18-6.44,5.72V82.42c0,3.22,0,3.58,3.4,3.58h8.41c9.48,0,10.37-1.43,11.81-6.8l.89-3.4c.89-1.25,3.58-1.07,4.47.36-.36,5.19-.36,8.41-.36,12.52,0,4.47,0,7.69.36,12.88-.89,1.43-3.58,1.61-4.47.36l-.89-3.4c-1.43-5.37-2.33-6.8-11.81-6.8h-8.41c-3.4,0-3.4.54-3.4,4.11v12.88c0,5.37.36,10.91,2,12.88,1.61,1.79,4.83,2.5,15,2.5,11.45,0,18.07-.54,23.25-14.85,1.25-1.25,4.11-.89,4.65.72-.89,7.51-3.4,16.46-5.37,19.85-11.27-.36-20.75-.54-30.41-.54H515.65c-5.72,0-11.27.18-19.85.54-1.43-.54-1.61-3.58-.36-4.47l4.83-.54c7.69-.89,8.41-2,8.41-14.31Z"/><path class="a" d="M588.8,70.44c0-12.34-.71-13.06-8.41-14.31l-3.4-.54c-1.25-.89-1.07-3.93.36-4.47,7,.36,12.52.54,18.24.54s11.27-.18,18.24-.54c1.43.54,1.61,3.58.36,4.47l-3.4.54c-7.69,1.25-8.41,2-8.41,14.31V110.5c0,12.34.72,13.06,8.41,14.31l3.4.54c1.25.89,1.07,3.93-.36,4.47-6.8-.36-12.7-.54-18.24-.54-5.72,0-11.27.18-18.24.54-1.43-.54-1.61-3.58-.36-4.47l3.4-.54c7.69-1.25,8.41-2,8.41-14.31Z"/><path class="a" d="M650.33,101.56c-4.11,0-4.65.18-6.08,4.29l-4.11,11.45c-2,5.72-1.43,6.44,2,7.16l4.83.89c1.43.89,1.25,4.11-.54,4.47-4.47-.36-9.12-.54-14.13-.54s-9.3.36-12.52.54c-1.61-.72-1.61-3.58-.36-4.47l4.11-.89c5.54-1.25,7.51-3.22,11.09-11.81l17.17-41.14c3-7.33,4.29-11.63,4.65-15,3.22-1.25,6.62-4.65,7.51-6.8,1.43-.54,2.5-.18,2.86.89.72,1.79,3.58,11.09,7.69,22l16.1,42.75c2.15,5.9,3.76,8.23,10.19,9.48l2.86.54c1.61.89,1.25,4.11-.54,4.47-4.65-.36-8.76-.54-14.85-.54-6.44,0-11.63.18-16.1.54-1.79-.54-2-3.76-.36-4.47l3.58-.54c4.65-.72,4.47-1.79,2.32-7.33l-4.29-11.63c-1.43-4.11-2-4.29-6.08-4.29Zm14.13-5.72c4.65,0,5.19-.36,3.22-5.54l-5.54-15.2a34.38,34.38,0,0,0-2.68-6.44h-.36c-.54.72-1.25,2.33-2.86,6.08L649.8,90.65c-2,4.83-1.61,5.19,2.33,5.19Z"/><path class="a" d="M40,184.49l-2.93-7.81H23.76l-2.93,7.81H16.69l11.86-30.2H32.3l11.86,30.2Zm-8.41-22.56c-.65-1.85-1.21-3.58-1.21-3.58s-.52,1.77-1.16,3.58l-4.18,11.3H35.8Z"/><path class="a" d="M79.54,184.49,64.79,162.28a11.53,11.53,0,0,1-1.34-2.37v24.59H59.74V154.3h3.84l14.67,22.26a20.08,20.08,0,0,1,1.29,2.24V154.3h3.71v30.2Z"/><path class="a" d="M92.35,173.54c0,5.57,2.93,8.07,6.47,8.07,2.11,0,3.67-.69,5.52-2.89l2.85,1.94c-2.42,2.8-5,4.14-8.37,4.14-5.69,0-10-3.92-10-11.43s4.49-11.6,9.66-11.6c5.44,0,9.45,4.1,9.45,10.61v1.16Zm.17-2.93h11.91c-.43-3.8-3-5.87-6-5.87S93.09,166.68,92.53,170.6Z"/><path class="a" d="M132.95,184.49H129.8l-4.18-12.29-4.27,12.29h-3.11l-7.12-22.43h3.75L120,179.32l5.61-16,5.56,16.09s3.45-11.65,5.13-17.3H140Z"/><path class="a" d="M182.13,184.49h-3.67l-5.61-16.74a18.94,18.94,0,0,1-.6-2.2,21.86,21.86,0,0,1-.6,2.2L166,184.49h-3.67l-8.71-30.2h3.93l6.17,21.52c.43,1.6.78,3.19.78,3.19a29.06,29.06,0,0,1,.86-3.06l6.86-20.1,6.86,20.1A24.17,24.17,0,0,1,180,179s.26-1.42.78-3.19l6.17-21.52h3.88Z"/><path class="a" d="M206.24,184.49l.13-2.37c-1.68,1.81-5.13,2.72-7.33,2.72-4.1,0-7.2-2.29-7.2-6.21,0-5.39,6.13-6.69,11.73-7.76l2.67-.52c-.09-3.58-1.34-5.57-4.79-5.57a7.54,7.54,0,0,0-6.13,3l-2.54-2.11a11,11,0,0,1,8.5-4c5.61,0,8.37,3.19,8.37,8.2v14.62Zm-1.42-11.09c-4,.86-9.36,1.9-9.36,5,0,2.42,1.6,3.45,4.18,3.45,2,0,5.26-1,6.56-2.89v-5.82Z"/><path class="a" d="M224.32,186.82c-1.51,3.84-3.71,6.43-7.76,6.43a13.33,13.33,0,0,1-4.14-.73l1.08-3a8,8,0,0,0,2.8.6c2.2,0,3.49-1.47,4.57-4.06l1.16-2.85-8.24-21.18h3.71L223.84,179l6.38-16.91h3.71Z"/><path class="a" d="M257.4,184.8c-5,0-7.07-3-7.07-8.11V165.13h-2.67v-3.06h2.67c0-1.55.09-3.15.09-4.7l3.36-1.55v6.25h6.95v3.06h-6.95V176.9c0,3.11.82,4.79,3.62,4.79a4.07,4.07,0,0,0,2.59-1.08l2.07,2.37A7,7,0,0,1,257.4,184.8Z"/><path class="a" d="M274,184.75c-5.56,0-9.88-4-9.88-11.47s4.31-11.52,9.88-11.52,9.92,4,9.92,11.52S279.58,184.75,274,184.75ZM274,165c-3.62,0-6.43,2.72-6.43,8.28s2.8,8.24,6.43,8.24,6.47-2.59,6.47-8.24S277.59,165,274,165Z"/><path class="a" d="M301,184.49V154.3h3.71v30.2Z"/><path class="a" d="M326.08,184.49V171.73c0-3.32-.95-6.9-5.78-6.9A6.74,6.74,0,0,0,315,167.5v17h-3.49V162.06h3.36l-.09,2.37a8.93,8.93,0,0,1,6.38-2.72c6.86,0,8.37,5.26,8.37,10.05v12.73Z"/><path class="a" d="M344,184.8c-5,0-7.07-3-7.07-8.11V165.13h-2.67v-3.06H337c0-1.55.09-3.15.09-4.7l3.36-1.55v6.25h6.95v3.06H340.4V176.9c0,3.11.82,4.79,3.62,4.79a4.07,4.07,0,0,0,2.59-1.08l2.07,2.37A7,7,0,0,1,344,184.8Z"/><path class="a" d="M354.42,173.54c0,5.57,2.93,8.07,6.47,8.07,2.11,0,3.67-.69,5.52-2.89l2.85,1.94c-2.42,2.8-5,4.14-8.37,4.14-5.69,0-10-3.92-10-11.43s4.49-11.6,9.66-11.6c5.44,0,9.45,4.1,9.45,10.61v1.16Zm.17-2.93H366.5c-.43-3.8-3-5.87-6-5.87S355.16,166.68,354.59,170.6Z"/><path class="a" d="M386.22,166.76a4.72,4.72,0,0,0-3.75-1.94,4.2,4.2,0,0,0-3.41,2v17.69h-3.49V162.06H379l0,1.77a5,5,0,0,1,4.18-2.07c2.5,0,4.1,1.12,5.69,3.11Z"/><path class="a" d="M405.28,184.49l.13-2.37c-1.68,1.81-5.13,2.72-7.33,2.72-4.1,0-7.2-2.29-7.2-6.21,0-5.39,6.13-6.69,11.73-7.76l2.67-.52c-.09-3.58-1.34-5.57-4.79-5.57a7.54,7.54,0,0,0-6.13,3l-2.54-2.11a11,11,0,0,1,8.5-4c5.61,0,8.37,3.19,8.37,8.2v14.62Zm-1.42-11.09c-4,.86-9.36,1.9-9.36,5,0,2.42,1.6,3.45,4.18,3.45,2,0,5.26-1,6.56-2.89v-5.82Z"/><path class="a" d="M424.09,184.84c-5.35,0-10-4-10-11.47s4.66-11.69,10-11.69c3.19,0,5.31,1,7.81,3.67l-2.5,2.11a6.34,6.34,0,0,0-5.31-2.59c-3.58,0-6.56,2.85-6.56,8.5s3,8.33,6.56,8.33c2,0,3.49-.65,5.35-2.76L432,181C429.57,183.76,427.28,184.84,424.09,184.84Z"/><path class="a" d="M444.67,184.8c-5,0-7.07-3-7.07-8.11V165.13h-2.67v-3.06h2.67c0-1.55.09-3.15.09-4.7l3.36-1.55v6.25H448v3.06H441V176.9c0,3.11.82,4.79,3.62,4.79a4.07,4.07,0,0,0,2.59-1.08l2.07,2.37A7,7,0,0,1,444.67,184.8Z"/><path class="a" d="M484.87,184.49h-3.15l-4.18-12.29-4.27,12.29h-3.11L463,162.06h3.75l5.13,17.25,5.61-16,5.56,16.09s3.45-11.65,5.13-17.3h3.71Z"/><path class="a" d="M496.31,159.47v-4.05H500v4.05Zm.13,25V162.06h3.45v22.43Z"/><path class="a" d="M514.68,184.8c-5,0-7.07-3-7.07-8.11V165.13h-2.67v-3.06h2.67c0-1.55.09-3.15.09-4.7l3.36-1.55v6.25H518v3.06h-6.95V176.9c0,3.11.82,4.79,3.62,4.79a4.07,4.07,0,0,0,2.59-1.08l2.07,2.37A7,7,0,0,1,514.68,184.8Z"/><path class="a" d="M538.58,184.49V171.73c0-3.32-.95-6.86-5.78-6.86a6.64,6.64,0,0,0-5.26,2.63v17H524V154.34h3.49v10a8.6,8.6,0,0,1,6.17-2.59c6.86,0,8.37,5.26,8.37,10.05v12.73Z"/><path class="a" d="M568.17,184.8c-4.75,0-8.76-3.11-10.27-4.79l2.76-2.42c1.68,1.94,4.57,3.84,7.51,3.84,3.67,0,6.34-2.07,6.34-5.31,0-6.9-15.57-4.79-15.57-14.32,0-5,4.31-8.07,9.75-8.07a14,14,0,0,1,8.67,3.54l-2.72,2.42a9.61,9.61,0,0,0-6-2.5c-3.32,0-6,1.6-6,4.62,0,6.73,15.53,4.66,15.53,14.32C578.27,181.91,573.31,184.8,568.17,184.8Z"/><path class="a" d="M592.59,184.84c-5.35,0-10-4-10-11.47s4.66-11.69,10-11.69c3.19,0,5.31,1,7.81,3.67l-2.5,2.11a6.34,6.34,0,0,0-5.31-2.59c-3.58,0-6.56,2.85-6.56,8.5s3,8.33,6.56,8.33c2,0,3.49-.65,5.35-2.76l2.54,2.07C598.07,183.76,595.78,184.84,592.59,184.84Z"/><path class="a" d="M605,159.47v-4.05h3.71v4.05Zm.13,25V162.06h3.45v22.43Z"/><path class="a" d="M617.65,173.54c0,5.57,2.93,8.07,6.47,8.07,2.11,0,3.67-.69,5.52-2.89l2.85,1.94c-2.42,2.8-5,4.14-8.37,4.14-5.69,0-10-3.92-10-11.43s4.49-11.6,9.66-11.6c5.44,0,9.45,4.1,9.45,10.61v1.16Zm.17-2.93h11.91c-.43-3.8-3-5.87-6-5.87S618.39,166.68,617.83,170.6Z"/><path class="a" d="M653.37,184.49V171.73c0-3.32-.95-6.9-5.78-6.9a6.74,6.74,0,0,0-5.26,2.67v17h-3.49V162.06h3.36l-.09,2.37a8.93,8.93,0,0,1,6.38-2.72c6.86,0,8.37,5.26,8.37,10.05v12.73Z"/><path class="a" d="M672.05,184.84c-5.35,0-10-4-10-11.47s4.66-11.69,10-11.69c3.19,0,5.31,1,7.81,3.67l-2.5,2.11a6.34,6.34,0,0,0-5.31-2.59c-3.58,0-6.56,2.85-6.56,8.5s3,8.33,6.56,8.33c2,0,3.49-.65,5.35-2.76l2.54,2.07C677.53,183.76,675.24,184.84,672.05,184.84Z"/><path class="a" d="M686.89,173.54c0,5.57,2.93,8.07,6.47,8.07,2.11,0,3.67-.69,5.52-2.89l2.85,1.94c-2.42,2.8-5,4.14-8.37,4.14-5.69,0-10-3.92-10-11.43s4.49-11.6,9.66-11.6c5.44,0,9.45,4.1,9.45,10.61v1.16Zm.17-2.93H699c-.43-3.8-3-5.87-6-5.87S687.63,166.68,687.06,170.6Z"/></svg>