<svg xmlns="http://www.w3.org/2000/svg" viewBox="0 0 721 205"><defs><style>.a{fill:#dc1b1b;}.b{fill:#0a5c90;}.c{fill:#0c8a8f;}.d{fill:#2db052;}.e{fill:#d95508;}.f{fill:#fff;}.g{fill:none;stroke:#fff;stroke-miterlimit:10;stroke-width:4px;}</style></defs><title>capeia_logo_centered_1c</title><path class="a" d="M158.57,57.5a38.88,38.88,0,0,0-13.25-11.05,35.75,35.75,0,0,0-16.2-3.7,64.53,64.53,0,0,0-17,2.31c-17.1,4.57-31,14.32-55.82,14.32a70,70,0,0,1-24-4.06C22.15,64.88,16,72.76,16,74.5s6.15,9.62,16.32,19.18a70,70,0,0,1,24-4.06c24.84,0,38.72,9.75,55.82,14.32a64.53,64.53,0,0,0,17,2.31,35.75,35.75,0,0,0,16.2-3.7A38.88,38.88,0,0,0,158.57,91.5c5.63-7.23,8-14.84,8-17S164.2,64.73,158.57,57.5ZM137.44,79.3a9.58,9.58,0,1,1,1.29-4.8A9.59,9.59,0,0,1,137.44,79.3Z"/><path class="b" d="M166.44,74.64V74.5c0-2.25-2.41-9.76-8-16.91l-.1-.13L183,43.26l.07.11A57.34,57.34,0,0,1,193.13,74.5v.14Z"/><path class="c" d="M158.46,57.59a38.53,38.53,0,0,0-13.2-11l-.13-.07L159,22.41l.12.06A63.47,63.47,0,0,1,183,43.37l.09.13L158.53,57.69Z"/><path class="d" d="M145.26,46.58a35.73,35.73,0,0,0-16.14-3.69H129v-29l.16,0a83.48,83.48,0,0,1,30,8.55l.13.07L145.38,46.64Z"/><path class="e" d="M95.58,16.67l.18,0A82.12,82.12,0,0,1,118,13.36a107.9,107.9,0,0,1,11.13.56h.13v29h-.14a63.93,63.93,0,0,0-17,2.3l-.11,0Z"/><path class="a" d="M56.31,59.52a70.77,70.77,0,0,1-24-4.07l-.2-.08.16-.15c9.44-8.88,34.52-30.41,63.53-38.59l.11,0,16.49,28.56-.18,0a152.92,152.92,0,0,0-15.62,5.39C85.15,55,73.36,59.52,56.31,59.52Z"/><path class="b" d="M158.36,91.54l.1-.13c5.57-7.15,8-14.66,8-16.91v-.14h26.7v.14A57.34,57.34,0,0,1,183,105.63l-.07.11Z"/><path class="c" d="M145.12,102.49l.13-.07a38.53,38.53,0,0,0,13.2-11l.08-.1,24.59,14.19-.09.13a63.47,63.47,0,0,1-23.88,20.9l-.12.06Z"/><path class="d" d="M129,106.11h.14a35.73,35.73,0,0,0,16.14-3.69l.12-.06,13.91,24.09-.13.07a83.47,83.47,0,0,1-30,8.55l-.16,0Z"/><path class="e" d="M118,135.64a82.14,82.14,0,0,1-22.25-3.26l-.18,0,16.49-28.55.11,0a63.93,63.93,0,0,0,17,2.3h.14v29h-.13A108.06,108.06,0,0,1,118,135.64Z"/><path class="a" d="M95.75,132.38c-29-8.18-54.09-29.71-63.53-38.59l-.16-.15.2-.08a70.77,70.77,0,0,1,24-4.07c17,0,28.84,4.54,40.24,8.94a152.92,152.92,0,0,0,15.62,5.39l.18,0L95.86,132.41Z"/><path class="f" d="M160.15,56.27a40.63,40.63,0,0,0-13.93-11.61,37.86,37.86,0,0,0-17.09-3.91,66,66,0,0,0-17.51,2.38,154.41,154.41,0,0,0-15.84,5.46c-11.22,4.32-22.82,8.8-39.47,8.8-13.38,0-22.05-3.55-22.15-3.59l-3.54,3.14a76.89,76.89,0,0,0,25.69,4.44c17.39,0,29.35-4.61,40.91-9.06A151.39,151.39,0,0,1,112.65,47a62.13,62.13,0,0,1,16.47-2.24,33.9,33.9,0,0,1,15.31,3.49A36.67,36.67,0,0,1,157,58.73c5.33,6.85,7.59,14.06,7.59,15.77s-2.26,8.92-7.59,15.77a36.67,36.67,0,0,1-12.56,10.49,33.9,33.9,0,0,1-15.31,3.49A62.13,62.13,0,0,1,112.65,102a151.39,151.39,0,0,1-15.43-5.33c-11.56-4.46-23.51-9.06-40.91-9.06a76.89,76.89,0,0,0-25.69,4.44l3.54,3.14c.1,0,8.77-3.59,22.15-3.59,16.65,0,28.25,4.47,39.47,8.8a154.41,154.41,0,0,0,15.84,5.46,66,66,0,0,0,17.51,2.38,37.86,37.86,0,0,0,17.09-3.91,40.63,40.63,0,0,0,13.93-11.61c6-7.65,8.43-15.65,8.43-18.23S166.11,63.92,160.15,56.27Z"/><line class="g" x1="193.06" y1="74.5" x2="166.58" y2="74.5"/><circle class="f" cx="129.12" cy="74.5" r="9.6"/><path class="f" d="M637.37,152.23c0-3-.06-3.33-1.32-3.51l-.81-.12c-.27-.15-.33-1,.12-1.08,2.28-.15,4.47-.27,7.47-.27s4.8.33,6.12,1.11a4.2,4.2,0,0,1,2.07,3.81,3.92,3.92,0,0,1-3.06,3.75c-.3.06-.6.18-.6.33s.15.18.42.24c2.37.51,4.38,2.07,4.41,5a5,5,0,0,1-3.51,5,18.75,18.75,0,0,1-6,.75c-1.08,0-2.22-.12-3.09-.12-1.47,0-2.94,0-4.65.09-.24-.18-.24-1,0-1l.87-.18c1.35-.27,1.53-.48,1.53-3.18Zm4.14,2.91c0,.78,0,.84,1.59.84a3.2,3.2,0,0,0,3.54-3.45c0-2.61-1.62-3.9-3.69-3.9-1.41,0-1.44.24-1.44,1.56Zm0,6.93c0,2.34.3,3.81,2.64,3.81s3.39-1.71,3.39-4.14c0-2.61-1.5-4.44-4.38-4.44-1.65,0-1.65,0-1.65,1.23Z"/><path class="f" d="M660.71,155.14c0,.84,0,.9.84.9h2.07c1.56,0,1.92-.21,2.22-1.65l.15-.75c.21-.24,1-.24,1.11,0-.06,1-.09,2-.09,3.18s0,2.22.09,3.18a.86.86,0,0,1-1.11,0l-.15-.75c-.3-1.44-.66-1.68-2.22-1.68h-2.07c-.81,0-.84,0-.84.93v3.57a5.44,5.44,0,0,0,.48,2.85c.39.54,1,.78,3.15.78,2.61,0,3.63-.09,5.28-3.48a.73.73,0,0,1,1.11.15,17,17,0,0,1-1.26,4.8c-1.59-.06-4.47-.09-6.93-.09h-3.9c-1.44,0-2.91,0-5.16.09a.85.85,0,0,1,0-1l1.41-.21c1.35-.21,1.53-.39,1.53-3.15V151.63c0-2.73-.18-2.91-1.53-3.18l-.75-.15a.76.76,0,0,1,.06-1.05c1.41.06,2.88.09,4.32.09h6.36c1.92,0,3.63,0,4-.09,0,.48.24,2.64.39,4.65-.12.33-.81.39-1.11.12a6.93,6.93,0,0,0-1.14-2.37,3.94,3.94,0,0,0-2.94-.93h-2.4c-1,0-1,.06-1,1.17Z"/><path class="f" d="M678.44,149.59c0-.72,0-.87-.72-.87h-1.86c-2.19,0-2.82,1.2-3.72,3.39a.84.84,0,0,1-1.11-.27,36.66,36.66,0,0,0,1-5.1.72.72,0,0,1,.42-.15.68.68,0,0,1,.42.12c.15.51.24.63,2.52.63h11.16c2,0,2.43,0,2.7-.66a.74.74,0,0,1,.39-.09.64.64,0,0,1,.45.21,21.27,21.27,0,0,0-.45,5.16c-.15.27-1,.33-1.11.09-.51-1.92-.93-3.33-3.18-3.33h-1.8c-.72,0-.81.09-.81.87v13.23c0,2.79.18,3,1.53,3.21l1.2.15a1,1,0,0,1,0,1c-1.95-.06-3.45-.09-4.8-.09s-3,0-5.1.09a.86.86,0,0,1,0-1l1.35-.15c1.35-.15,1.53-.42,1.53-3.21Z"/><path class="f" d="M694,160.36c-.72,0-.81,0-1,.6l-1.17,3.48a3.48,3.48,0,0,0-.21,1.08c0,.18.39.36,1.23.51l.9.15c.18.21.24.9-.06,1-1-.06-2.13-.06-3.39-.09-1,0-1.71.09-3.09.09-.33-.18-.3-.81-.09-1l.81-.09a2.07,2.07,0,0,0,1.83-1.5c.51-1.2,1.08-2.64,1.89-4.8l2.73-7.32c.69-1.89,1.2-2.94,1.11-3.81a6,6,0,0,0,2.61-1.8c.39,0,.57.15.69.6.24.87.6,2,1.35,4.11l4.08,11.76c.63,1.8.9,2.49,2,2.67l1.14.18c.18.15.24.87,0,1-1.44-.06-3.06-.09-4.62-.09s-2.67,0-4.05.09a.68.68,0,0,1-.06-1l1-.15c.69-.12.81-.33.81-.51a12.71,12.71,0,0,0-.57-2L699,160.9c-.15-.48-.39-.54-1.44-.54Zm3.42-1.59c.69,0,.84-.09.6-.87l-.78-2.43c-.42-1.29-1-2.91-1.23-3.54-.24.69-.84,2.31-1.29,3.69l-.75,2.25c-.27.81-.12.9.63.9Z"/><path class="f" d="M244.2,31.61c12.09-9.44,27.49-14.08,44.72-14.08a127.83,127.83,0,0,1,29.32,4,12.49,12.49,0,0,0,4.64.66c.17,3.81,1,14.24,2.32,24.35-.83,1.16-3.31,1.33-4.47.33-2.48-11.26-9.94-24.18-34-24.18-25.34,0-46.87,16.07-46.87,50.35,0,34.78,22,54,49.19,54,21.37,0,30.81-13.91,34.62-23.68,1.16-.83,3.64-.5,4.31.66-1.16,8.61-5.46,19.54-7.95,22.69a33.31,33.31,0,0,0-5.8,1.66c-3.64,1.32-15.57,3.81-26.17,3.81-14.91,0-29.15-3-41.24-11.1-13.25-9.11-23.52-24.18-23.52-45.55C223.33,57.12,231.61,41.38,244.2,31.61Z"/><path class="f" d="M360.74,101.56c-4.11,0-4.65.18-6.08,4.29l-4.11,11.45c-2,5.72-1.43,6.44,2,7.16l4.83.89c1.43.89,1.25,4.11-.54,4.47-4.47-.36-9.12-.54-14.13-.54s-9.3.36-12.52.54c-1.61-.72-1.61-3.58-.36-4.47l4.11-.89c5.54-1.25,7.51-3.22,11.09-11.81l17.17-41.14c3-7.33,4.29-11.63,4.65-15,3.22-1.25,6.62-4.65,7.51-6.8,1.43-.54,2.5-.18,2.86.89.72,1.79,3.58,11.09,7.69,22L401,115.33c2.15,5.9,3.76,8.23,10.19,9.48l2.86.54c1.61.89,1.25,4.11-.54,4.47-4.65-.36-8.76-.54-14.85-.54-6.44,0-11.63.18-16.1.54-1.79-.54-2-3.76-.36-4.47l3.58-.54c4.65-.72,4.47-1.79,2.32-7.33l-4.29-11.63c-1.43-4.11-2-4.29-6.08-4.29Zm14.13-5.72c4.65,0,5.19-.36,3.22-5.54l-5.54-15.2a34.38,34.38,0,0,0-2.68-6.44h-.36c-.54.72-1.25,2.33-2.86,6.08l-6.44,15.92c-2,4.83-1.61,5.19,2.32,5.19Z"/><path class="f" d="M432.11,72.58c0-11.63-.18-14.31-4.29-15l-5.37-.89c-1.61-.54-1.43-3.94.18-4.47,10-.71,19.14-1.07,28.62-1.07,10,0,16.46,1.25,21.46,3A21.52,21.52,0,0,1,487.2,75.09c0,12.34-8.23,18.07-14.85,20.39-6.08,2.15-12.88,3-16.28,2.68a2.46,2.46,0,0,1-.18-3.22C467,92.62,472.54,86,472.54,74.55c0-11.81-7.33-18.24-19.5-18.24-7.33,0-7.33,1.07-7.33,6.08V110.5c0,12.34.72,13.24,8.41,14.31l4.11.54c1.25.89,1.07,3.93-.36,4.47-7.51-.36-13.42-.54-19-.54-5.72,0-11.27.18-17.53.54-1.43-.54-1.61-3.58-.36-4.47l2.68-.54c7.69-1.61,8.41-2,8.41-14.31Z"/><path class="f" d="M508.67,70.44c0-12.34-.71-12.88-7.51-14.31l-2.5-.54c-1.25-.72-1.07-3.76.36-4.47q7.78.54,16.63.54H541c7.87,0,15-.18,16.63-.54l2,18.24c-.72,1.43-3.58,1.61-4.65.36-1.07-4.65-2.15-7-3.22-8.58-2.86-4.29-10.91-4.29-15.2-4.29H528.7c-6.26,0-6.44.18-6.44,5.72V82.42c0,3.22,0,3.58,3.4,3.58h8.41c9.48,0,10.37-1.43,11.81-6.8l.89-3.4c.89-1.25,3.58-1.07,4.47.36-.36,5.19-.36,8.41-.36,12.52,0,4.47,0,7.69.36,12.88-.89,1.43-3.58,1.61-4.47.36l-.89-3.4c-1.43-5.37-2.33-6.8-11.81-6.8h-8.41c-3.4,0-3.4.54-3.4,4.11v12.88c0,5.37.36,10.91,2,12.88,1.61,1.79,4.83,2.5,15,2.5,11.45,0,18.07-.54,23.25-14.85,1.25-1.25,4.11-.89,4.65.72-.89,7.51-3.4,16.46-5.37,19.85-11.27-.36-20.75-.54-30.41-.54H515.65c-5.72,0-11.27.18-19.85.54-1.43-.54-1.61-3.58-.36-4.47l4.83-.54c7.69-.89,8.41-2,8.41-14.31Z"/><path class="f" d="M588.8,70.44c0-12.34-.71-13.06-8.41-14.31l-3.4-.54c-1.25-.89-1.07-3.93.36-4.47,7,.36,12.52.54,18.24.54s11.27-.18,18.24-.54c1.43.54,1.61,3.58.36,4.47l-3.4.54c-7.69,1.25-8.41,2-8.41,14.31V110.5c0,12.34.72,13.06,8.41,14.31l3.4.54c1.25.89,1.07,3.93-.36,4.47-6.8-.36-12.7-.54-18.24-.54-5.72,0-11.27.18-18.24.54-1.43-.54-1.61-3.58-.36-4.47l3.4-.54c7.69-1.25,8.41-2,8.41-14.31Z"/><path class="f" d="M650.33,101.56c-4.11,0-4.65.18-6.08,4.29l-4.11,11.45c-2,5.72-1.43,6.44,2,7.16l4.83.89c1.43.89,1.25,4.11-.54,4.47-4.47-.36-9.12-.54-14.13-.54s-9.3.36-12.52.54c-1.61-.72-1.61-3.58-.36-4.47l4.11-.89c5.54-1.25,7.51-3.22,11.09-11.81l17.17-41.14c3-7.33,4.29-11.63,4.65-15,3.22-1.25,6.62-4.65,7.51-6.8,1.43-.54,2.5-.18,2.86.89.72,1.79,3.58,11.09,7.69,22l16.1,42.75c2.15,5.9,3.76,8.23,10.19,9.48l2.86.54c1.61.89,1.25,4.11-.54,4.47-4.65-.36-8.76-.54-14.85-.54-6.44,0-11.63.18-16.1.54-1.79-.54-2-3.76-.36-4.47l3.58-.54c4.65-.72,4.47-1.79,2.32-7.33l-4.29-11.63c-1.43-4.11-2-4.29-6.08-4.29Zm14.13-5.72c4.65,0,5.19-.36,3.22-5.54l-5.54-15.2a34.38,34.38,0,0,0-2.68-6.44h-.36c-.54.72-1.25,2.33-2.86,6.08L649.8,90.65c-2,4.83-1.61,5.19,2.33,5.19Z"/></svg>